<svg xmlns="http://www.w3.org/2000/svg" xmlns:xlink="http://www.w3.org/1999/xlink" width="363" height="50" viewBox="0 0 363 50">
    <defs>
        <path id="a" d="M.28 1.15h14.023v17.953H.28z"/>
        <path id="c" d="M.63.13h12.187v14.105H.63z"/>
        <path id="e" d="M.21 1.15h14.022v17.953H.21z"/>
    </defs>
    <g fill="none" fill-rule="evenodd">
        <path fill="#2B5D9B" d="M29.273 1.996c1.673-.836 2.511-.836 4.185 0 1.671.837 2.509.837 4.182 0v2.51c-1.673.837-2.511.837-4.182 0-1.674-.836-2.512-.836-4.185 0v-2.51z"/>
        <path stroke="#1A1919" stroke-width=".5" d="M29.273 1.996c1.673-.836 2.511-.836 4.185 0 1.671.837 2.509.837 4.182 0v2.51c-1.673.837-2.511.837-4.182 0-1.674-.836-2.512-.836-4.185 0v-2.51z"/>
        <path fill="#F9EC33" d="M29.273 4.506c1.673-.837 2.511-.837 4.185 0 1.671.836 2.509.836 4.182 0v2.51c-1.673.837-2.511.837-4.182 0-1.674-.836-2.512-.836-4.185 0v-2.51z"/>
        <path stroke="#1A1919" stroke-width=".5" d="M29.273 4.506c1.673-.837 2.511-.837 4.185 0 1.671.836 2.509.836 4.182 0v2.51c-1.673.837-2.511.837-4.182 0-1.674-.836-2.512-.836-4.185 0v-2.51z"/>
        <path fill="#FFFFFE" d="M9.861 49.02H48.35V24.253H9.861z"/>
        <path stroke="#1A1919" stroke-width=".5" d="M9.861 49.02H48.35V24.253H9.861z"/>
        <path fill="#FFFFFE" d="M8.857 24.252v-.836h5.857v-1.005h28.784v1.005h5.856v.836z"/>
        <path stroke="#1A1919" stroke-width=".5" d="M8.857 24.252v-.836h5.857v-1.005h28.784v1.005h5.856v.836zM9.86 28.604h38.49M9.86 30.947h38.49M9.86 46.508h38.49m-38.49 1.34h38.49"/>
        <path fill="#FFFFFE" d="M22.747 28.604c-2.677-.167-2.343-3.85-3.85-4.351m5.858 4.35c-2.51-1.004-1.841-3.514-3.514-4.35m14.225 4.35c2.677-.167 2.342-3.849 3.847-4.35m-5.855 4.35c2.51-1.004 1.84-3.514 3.514-4.35"/>
        <path stroke="#1A1919" stroke-width=".5" d="M22.747 28.604c-2.677-.167-2.343-3.85-3.85-4.351m5.858 4.35c-2.51-1.004-1.841-3.514-3.514-4.35m14.225 4.35c2.677-.167 2.342-3.849 3.847-4.35m-5.855 4.35c2.51-1.004 1.84-3.514 3.514-4.35"/>
        <path fill="#FFFFFE" d="M29.942 31.95h3.348v-1.004h-3.348z"/>
        <path stroke="#1A1919" stroke-width=".5" d="M29.942 31.95h3.348v-1.004h-3.348z"/>
        <path fill="#FFFFFE" d="M29.942 46.51h3.348v-1.005h-3.348z"/>
        <path stroke="#1A1919" stroke-width=".5" d="M29.942 46.51h3.348v-1.005h-3.348z"/>
        <path fill="#FFFFFE" d="M30.444 45.505h2.344V31.95h-2.344z"/>
        <path stroke="#1A1919" stroke-width=".5" d="M30.444 45.505h2.344V31.95h-2.344z"/>
        <path fill="#FFFFFE" d="M24.922 31.95h3.347v-1.004h-3.347z"/>
        <path stroke="#1A1919" stroke-width=".5" d="M24.922 31.95h3.347v-1.004h-3.347z"/>
        <path fill="#FFFFFE" d="M24.922 46.51h3.347v-1.005h-3.347z"/>
        <path stroke="#1A1919" stroke-width=".5" d="M24.922 46.51h3.347v-1.005h-3.347z"/>
        <path fill="#FFFFFE" d="M25.424 45.505h2.343V31.95h-2.343z"/>
        <path stroke="#1A1919" stroke-width=".5" d="M25.424 45.505h2.343V31.95h-2.343z"/>
        <path fill="#FFFFFE" d="M19.902 31.95h3.347v-1.004h-3.347z"/>
        <path stroke="#1A1919" stroke-width=".5" d="M19.902 31.95h3.347v-1.004h-3.347z"/>
        <path fill="#FFFFFE" d="M19.902 46.51h3.347v-1.005h-3.347z"/>
        <path stroke="#1A1919" stroke-width=".5" d="M19.902 46.51h3.347v-1.005h-3.347z"/>
        <path fill="#FFFFFE" d="M20.404 45.505h2.343V31.95h-2.343z"/>
        <path stroke="#1A1919" stroke-width=".5" d="M20.404 45.505h2.343V31.95h-2.343z"/>
        <path fill="#FFFFFE" d="M14.882 31.95h3.347v-1.004h-3.347z"/>
        <path stroke="#1A1919" stroke-width=".5" d="M14.882 31.95h3.347v-1.004h-3.347z"/>
        <path fill="#FFFFFE" d="M14.882 46.51h3.347v-1.005h-3.347z"/>
        <path stroke="#1A1919" stroke-width=".5" d="M14.882 46.51h3.347v-1.005h-3.347z"/>
        <path fill="#FFFFFE" d="M15.383 45.505h2.343V31.95h-2.343z"/>
        <path stroke="#1A1919" stroke-width=".5" d="M15.383 45.505h2.343V31.95h-2.343z"/>
        <path fill="#FFFFFE" d="M34.963 31.95h3.346v-1.004h-3.346z"/>
        <path stroke="#1A1919" stroke-width=".5" d="M34.963 31.95h3.346v-1.004h-3.346z"/>
        <path fill="#FFFFFE" d="M34.963 46.51h3.346v-1.005h-3.346z"/>
        <path stroke="#1A1919" stroke-width=".5" d="M34.963 46.51h3.346v-1.005h-3.346z"/>
        <path fill="#FFFFFE" d="M35.465 45.505h2.342V31.95h-2.342z"/>
        <path stroke="#1A1919" stroke-width=".5" d="M35.465 45.505h2.342V31.95h-2.342z"/>
        <path fill="#FFFFFE" d="M39.983 31.95h3.347v-1.004h-3.347z"/>
        <path stroke="#1A1919" stroke-width=".5" d="M39.983 31.95h3.347v-1.004h-3.347z"/>
        <path fill="#FFFFFE" d="M39.983 46.51h3.347v-1.005h-3.347z"/>
        <path stroke="#1A1919" stroke-width=".5" d="M39.983 46.51h3.347v-1.005h-3.347z"/>
        <path fill="#FFFFFE" d="M40.485 45.505h2.344V31.95h-2.344z"/>
        <path stroke="#1A1919" stroke-width=".5" d="M40.485 45.505h2.344V31.95h-2.344z"/>
        <path fill="#FFFFFE" d="M1.327 46.51h12.886V28.604H1.327z"/>
        <path stroke="#1A1919" stroke-width=".5" d="M1.327 46.51h12.886V28.604H1.327zM5.678 28.604v17.904m4.184-17.905v17.905M1.327 30.947h4.35m8.536 0H9.862"/>
        <path fill="#FFFFFE" d="M.322 28.603h14.893V26.26H.322z"/>
        <path stroke="#3A3A39" stroke-width=".5" d="M.322 28.603h14.894V26.26H.322z"/>
        <path fill="#FFFFFE" d="M.322 49.02h14.893v-2.51H.322z"/>
        <path stroke="#1A1919" stroke-width=".5" d="M.322 49.02h14.894v-2.51H.322z"/>
        <path fill="#FFFFFE" d="M43.998 46.51h12.887V28.604H43.998z"/>
        <path stroke="#1A1919" stroke-width=".5" d="M43.998 46.51h12.887V28.604H43.998zM52.534 28.604v17.904M48.35 28.603v17.905m8.536-15.562h-4.352m-8.535 0h4.35"/>
        <path fill="#FFFFFE" d="M42.994 28.603h14.895V26.26H42.994z"/>
        <path stroke="#1A1919" stroke-width=".5" d="M42.994 28.603h14.895V26.26H42.994z"/>
        <path fill="#FFFFFE" d="M42.995 49.02h14.894v-2.51H42.995z"/>
        <path stroke="#1A1919" stroke-width=".5" d="M42.994 49.02h14.895v-2.51H42.994z"/>
        <path fill="#FFFFFE" d="M28.938.322h.335c.185 0 .335.15.335.334v11.045c0 .185-.15.335-.335.335h-.335a.335.335 0 0 1-.335-.335V.656c0-.185.15-.334.335-.334"/>
        <path stroke="#1A1919" stroke-width=".5" d="M28.938.322h.335c.185 0 .335.15.335.334v11.045c0 .185-.15.335-.335.335h-.335a.335.335 0 0 1-.335-.335V.656c0-.185.15-.334.335-.334z"/>
        <path fill="#FFFFFE" d="M16.053 22.412c.803-3.734 3.69-6.873 7.698-8.367H34.46c4.008 1.494 6.896 4.633 7.699 8.367H16.053z"/>
        <path stroke="#1A1919" stroke-width=".5" d="M16.053 22.412c.803-3.734 3.69-6.873 7.698-8.367H34.46c4.008 1.494 6.896 4.633 7.699 8.367H16.053z"/>
        <path fill="#FFFFFE" d="M22.245 22.412c.506-3.795 2.004-6.914 4.016-8.367m9.707 8.367c-.507-3.795-2.004-6.914-4.018-8.367"/>
        <path stroke="#1A1919" stroke-width=".5" d="M22.245 22.412c.506-3.795 2.004-6.914 4.016-8.367m9.707 8.367c-.507-3.795-2.004-6.914-4.018-8.367"/>
        <path fill="#FFFFFE" d="M25.257 13.208l-.837.837h9.372l-.836-.837z"/>
        <path stroke="#1A1919" stroke-width=".5" d="M24.42 14.044l.837-.836h7.699l.836.836z"/>
        <path fill="#FFFFFE" d="M26.595 13.208l.586-1.171-.586-1.172h5.021l-.586 1.172.586 1.171z"/>
        <path stroke="#1A1919" stroke-width=".5" d="M26.595 13.208l.586-1.171-.586-1.172h5.021l-.586 1.172.586 1.171z"/>
        <g>
            <path fill="#FFFFFE" d="M29.106 16.555a5.857 5.857 0 1 1 0 11.714 5.857 5.857 0 0 1 0-11.714"/>
            <path stroke="#1A1919" stroke-width=".5" d="M29.106 16.555a5.857 5.857 0 1 1 0 11.714 5.857 5.857 0 0 1 0-11.714z"/>
            <path fill="#1A1919" d="M29.106 17.584a1.5 1.5 0 0 0-.377.994c.015.838.115 1.674.125 2.51.018.781-.215 1.514-.499 2.229-.096.199-.198.392-.301.585l-.302-.06a.503.503 0 0 1 .096-.994l.11.012-.246-2.049a3.13 3.13 0 0 0-1.618-2.474v7.272h1.678c.126.68.5 1.275 1.027 1.682.126.085.231.201.307.333.075-.132.18-.245.307-.333.527-.407.9-1.002 1.025-1.682h1.68v-7.272a3.128 3.128 0 0 0-1.619 2.474l-.247 2.049.112-.012a.502.502 0 0 1 .096.994l-.302.06a14.636 14.636 0 0 1-.301-.585c-.286-.715-.521-1.448-.501-2.229.011-.839.111-1.674.127-2.51a1.51 1.51 0 0 0-.377-.994zm-2.511 1.8c.324.381.543.856.608 1.378l.2 1.689a1.008 1.008 0 0 0-.524.648h-.284v-3.715zm5.021 0v3.715h-.283a1.014 1.014 0 0 0-.526-.648l.201-1.689c.066-.522.284-.997.608-1.378zm-2.51 3.396c.135.441.321.861.552 1.25a1.128 1.128 0 0 0-.552.372 1.13 1.13 0 0 0-.552-.372c.231-.389.416-.809.552-1.25zm-2.511.821h.284c.091.346.361.62.703.715l.241.055a2.74 2.74 0 0 0-.101.735h-1.129v-1.505h.002zm4.738 0h.283v1.505h-1.129c0-.253-.035-.501-.102-.735l.242-.055a.999.999 0 0 0 .702-.715h.004zm-3.018.886a.625.625 0 0 1 .539.619h-.626c0-.215.031-.42.087-.619zm1.582 0c.055.196.087.404.087.619h-.628c0-.316.236-.577.541-.619zm-1.612 1.122h.569v1.056a2.274 2.274 0 0 1-.569-1.056zm1.071 0h.57a2.244 2.244 0 0 1-.57 1.056v-1.056z"/>
        </g>
        <path stroke="#D92B2A" stroke-width="2" d="M74.5 6v38"/>
        <g>
            <path fill="#1A1919" d="M92.873 32.274c.771.179 1.534.268 2.285.268 1.205 0 2.124-.27 2.755-.81.632-.54.949-1.21.949-2.005 0-.524-.144-1.027-.43-1.512-.286-.483-.752-.865-1.397-1.143-.646-.278-1.444-.418-2.396-.418-.413 0-.765.006-1.058.02a5.047 5.047 0 0 0-.708.07v5.53zm0-6.444c.245.045.527.08.843.103.317.023.665.035 1.044.035.971 0 1.7-.105 2.19-.313.489-.21.864-.53 1.122-.96.26-.431.39-.902.39-1.412 0-.791-.322-1.463-.967-2.02-.646-.557-1.589-.835-2.826-.835-.665 0-1.264.072-1.796.219v5.183zm5.23.537c.938.198 1.64.516 2.106.953.645.611.968 1.357.968 2.238 0 .67-.213 1.312-.639 1.926-.426.612-1.01 1.06-1.751 1.342-.743.283-1.876.423-3.399.423h-6.387v-.368h.509c.564 0 .97-.18 1.216-.537.154-.233.23-.727.23-1.483v-8.713c0-.836-.096-1.363-.29-1.582-.258-.29-.645-.437-1.156-.437H89v-.369h5.85c1.09 0 1.965.082 2.624.24.998.238 1.76.66 2.285 1.268.526.607.79 1.304.79 2.094 0 .676-.208 1.282-.62 1.815-.413.533-1.022.93-1.827 1.19zM111.056 32.88v.368h-5.798v-.367h.478c.56 0 .965-.163 1.218-.488.16-.212.24-.723.24-1.532v-8.713c0-.682-.044-1.134-.13-1.353-.066-.165-.202-.308-.409-.427a1.89 1.89 0 0 0-.92-.24h-.477v-.368h5.798v.369h-.488c-.553 0-.956.161-1.209.488-.166.212-.25.722-.25 1.53v8.714c0 .684.045 1.133.132 1.352.065.167.205.31.418.429.287.16.588.239.909.239h.488zM125.836 19.76l.15 3.163h-.38c-.073-.555-.173-.954-.299-1.193-.206-.383-.48-.668-.823-.85-.343-.182-.794-.275-1.352-.275h-1.908V30.91c0 .83.091 1.348.27 1.552.254.28.642.42 1.168.42h.47v.367h-5.74v-.368h.48c.57 0 .977-.173 1.216-.517.147-.213.221-.697.221-1.454V20.605h-1.627c-.632 0-1.082.047-1.348.141-.345.125-.641.368-.888.725-.247.36-.394.844-.44 1.452h-.378l.16-3.163h11.048zM137.002 27.996l-2.295-5.45-2.356 5.45h4.651zm.28.737h-5.24l-.918 2.129c-.227.524-.34.915-.34 1.173 0 .205.098.387.294.543.196.155.621.256 1.273.302v.37h-4.262v-.37c.566-.1.931-.227 1.097-.387.34-.318.716-.965 1.129-1.94l4.762-11.102h.349l4.71 11.222c.38.902.725 1.487 1.034 1.756.309.268.74.419 1.292.451v.37h-5.34v-.37c.539-.025.902-.115 1.092-.269.19-.151.286-.336.286-.555 0-.292-.134-.753-.4-1.383l-.818-1.94zM154.766 20.497h-4.193v3.78c0 3.813-.329 6.287-.987 7.425-.66 1.137-1.568 1.707-2.725 1.707-.493 0-.872-.122-1.138-.364-.267-.242-.4-.523-.4-.84 0-.246.088-.458.26-.637a.838.838 0 0 1 .63-.269c.204 0 .44.1.707.298.3.22.569.328.809.328.579 0 1.052-.478 1.417-1.436.366-.959.549-2.775.549-5.446v-2.826c0-.888-.117-1.452-.35-1.691-.232-.237-.768-.372-1.606-.396v-.37h10.889v.37c-.838.024-1.374.159-1.607.396-.232.239-.349.803-.349 1.691v8.575c0 .889.117 1.452.35 1.691.232.238.768.372 1.606.398v.368h-5.82v-.368c.84-.026 1.375-.16 1.609-.398.232-.24.349-.802.349-1.691V20.497zM167.769 32.88v.368h-5.798v-.367h.477c.56 0 .965-.163 1.219-.488.16-.212.24-.723.24-1.532v-8.713c0-.682-.044-1.134-.13-1.353-.068-.165-.203-.308-.41-.427a1.89 1.89 0 0 0-.919-.24h-.477v-.368h5.798v.369h-.488c-.554 0-.956.161-1.21.488-.164.212-.249.722-.249 1.53v8.714c0 .684.044 1.133.131 1.352.065.167.206.31.418.429.287.16.59.239.91.239h.488z"/>
            <g transform="translate(170.81 14.145)">
                <mask id="b" fill="#fff">
                    <use xlink:href="#a"/>
                </mask>
                <path fill="#1A1919" d="M10.37 1.149a.68.68 0 0 1 .535.264c.149.176.224.383.224.622 0 .59-.306 1.096-.918 1.52-.613.425-1.584.639-2.914.639-1.337 0-2.311-.214-2.92-.638-.608-.425-.913-.93-.913-1.52 0-.234.072-.44.22-.618a.68.68 0 0 1 .548-.27c.22 0 .408.085.564.254.157.17.378.543.664 1.12.4.822 1.011 1.233 1.837 1.233.818 0 1.43-.411 1.836-1.233.28-.584.496-.96.648-1.125a.768.768 0 0 1 .59-.248zm.06 6.694c0-.809-.13-1.321-.393-1.537-.264-.215-.795-.322-1.592-.322v-.37h5.858v.37c-.838.025-1.374.159-1.606.397-.234.24-.35.802-.35 1.691v8.575c0 .888.116 1.452.35 1.69.232.24.768.372 1.606.399v.367H8.445v-.367c.858-.027 1.404-.16 1.636-.404.234-.24.35-.804.35-1.685V8.908l-6.278 8.016c.005.579.044.965.115 1.16.07.195.232.349.488.462.257.113.71.176 1.363.19v.367H.28v-.367c.84-.027 1.374-.16 1.608-.399.233-.238.35-.802.35-1.69V8.072c0-.889-.117-1.452-.35-1.691-.234-.238-.769-.372-1.607-.397v-.37h5.84v.37c-.846.025-1.385.159-1.619.397-.232.24-.348.802-.348 1.691v7.769l6.278-7.998z" mask="url(#b)"/>
            </g>
            <path fill="#1A1919" d="M209.301 33.249v-.368c.845-.027 1.384-.159 1.617-.398.234-.239.35-.803.35-1.69v-4.129l-.28-.01c-.247 0-.45.046-.61.14a1.1 1.1 0 0 0-.383.367c-.097.153-.537.951-1.322 2.397l-1.987 3.69h-3.444v-.367c.986-.153 1.714-.534 2.187-1.144.472-.61 1.274-1.913 2.405-3.91.413-.73.815-1.224 1.207-1.481a3.004 3.004 0 0 1-.907-1.03c-.207-.395-.48-1.158-.818-2.292-.274-.896-.478-1.452-.615-1.667-.136-.215-.322-.323-.554-.323-.22 0-.505.1-.859.298-.338.192-.628.29-.867.29a.985.985 0 0 1-.693-.25.792.792 0 0 1-.276-.617c0-.299.14-.565.42-.8.279-.235.692-.354 1.237-.354.533 0 1.01.136 1.433.409.422.27.723.59.902.955.18.364.433 1.07.76 2.118.292.949.517 1.584.672 1.91.158.325.38.573.67.74.289.17.66.254 1.112.254.153 0 .356-.019.61-.06v-3.71c0-.888-.116-1.451-.35-1.69-.233-.239-.772-.372-1.617-.398v-.369h5.83v.369c-.84.026-1.373.16-1.603.397-.229.24-.344.803-.344 1.692v3.71c.186.04.36.06.52.06.498 0 .89-.085 1.177-.254.286-.168.507-.412.664-.726.155-.315.384-.957.683-1.925.32-1.041.568-1.741.749-2.103.18-.362.48-.682.902-.961.424-.28.904-.418 1.443-.418.52 0 .925.114 1.218.339.292.225.44.498.44.815 0 .246-.09.45-.27.616-.18.167-.413.25-.698.25-.228 0-.517-.097-.869-.289-.36-.198-.652-.298-.88-.298-.219 0-.398.113-.538.342-.139.23-.343.78-.608 1.648-.347 1.14-.62 1.906-.824 2.297a2.947 2.947 0 0 1-.904 1.025c.327.24.597.516.814.835.216.32.714 1.158 1.492 2.517.739 1.3 1.317 2.12 1.732 2.461.416.342 1.003.582 1.761.722v.368h-3.444c-.079-.172-.592-1.131-1.536-2.876l-1.557-2.873a2.564 2.564 0 0 0-.409-.558c-.18-.191-.447-.288-.798-.288-.074 0-.16.002-.26.01v4.128c0 .888.115 1.452.344 1.69.23.24.763.372 1.602.4v.367h-5.829zM223.802 19.76h5.49v.37c-.966.038-1.448.298-1.448.776 0 .336.356 1.127 1.069 2.366l2.954 5.172 2.156-5.172c.453-1.088.679-1.816.679-2.19 0-.516-.42-.834-1.258-.953v-.369h4.242v.37c-.999.118-1.757.794-2.276 2.028l-2.586 6.128c-.671 1.571-1.217 2.688-1.635 3.352-.42.662-.878 1.148-1.374 1.457-.496.308-1.009.462-1.542.462-.459 0-.846-.097-1.163-.293-.315-.196-.474-.463-.474-.802a.82.82 0 0 1 .25-.61c.167-.163.392-.245.679-.245.28 0 .612.113.999.339.258.138.455.208.588.208.526 0 1.115-.544 1.766-1.632l-4.91-8.603c-.347-.603-.674-1.03-.983-1.283-.31-.252-.717-.42-1.223-.507v-.369zM244.661 26.366c.352.066.665.115.94.149.272.034.503.05.697.05.692 0 1.289-.268 1.792-.802.5-.533.753-1.224.753-2.073 0-.583-.12-1.126-.36-1.627-.239-.5-.578-.875-1.018-1.123-.439-.25-.939-.373-1.496-.373-.34 0-.777.062-1.308.188v5.611zm0 .566v3.93c0 .849.093 1.375.28 1.58.251.292.635.439 1.147.439h.519v.367h-5.799v-.367h.51c.57 0 .981-.185 1.227-.557.133-.207.2-.693.2-1.462v-8.715c0-.847-.09-1.374-.27-1.58-.26-.292-.646-.437-1.157-.437h-.51v-.37h4.961c1.21 0 2.165.125 2.865.375a3.927 3.927 0 0 1 1.766 1.256c.479.59.72 1.29.72 2.1 0 1.1-.366 1.995-1.094 2.686-.729.69-1.758 1.034-3.09 1.034a8.72 8.72 0 0 1-1.058-.07 12.88 12.88 0 0 1-1.217-.21zM260.746 27.996l-2.295-5.45-2.355 5.45h4.65zm.28.737h-5.239l-.918 2.129c-.227.524-.34.915-.34 1.173 0 .205.097.387.295.543.196.155.62.256 1.272.302v.37h-4.262v-.37c.565-.1.931-.227 1.099-.387.338-.318.714-.965 1.127-1.94l4.76-11.102h.35l4.711 11.222c.38.902.724 1.487 1.033 1.756.309.268.74.419 1.293.451v.37h-5.34v-.37c.54-.025.903-.115 1.094-.269a.69.69 0 0 0 .283-.555c0-.292-.133-.753-.399-1.383l-.818-1.94zM273.102 32.274a10.13 10.13 0 0 0 2.287.268c1.204 0 2.122-.27 2.754-.81.633-.54.948-1.21.948-2.005 0-.524-.143-1.027-.43-1.512-.285-.483-.752-.865-1.397-1.143s-1.443-.418-2.395-.418c-.413 0-.766.006-1.058.02a5.068 5.068 0 0 0-.709.07v5.53zm0-6.444c.245.045.527.08.843.103.317.023.665.035 1.044.035.971 0 1.702-.105 2.192-.313.488-.21.862-.53 1.122-.96.26-.431.39-.902.39-1.412 0-.791-.324-1.463-.968-2.02-.645-.557-1.588-.835-2.826-.835-.666 0-1.265.072-1.797.219v5.183zm5.23.537c.938.198 1.64.516 2.106.953.645.611.968 1.357.968 2.238 0 .67-.213 1.312-.638 1.926-.426.612-1.01 1.06-1.75 1.342-.744.283-1.877.423-3.4.423h-6.388v-.368h.509c.566 0 .971-.18 1.218-.537.153-.233.228-.727.228-1.483v-8.713c0-.836-.096-1.363-.288-1.582-.26-.29-.645-.437-1.158-.437h-.51v-.369h5.85c1.09 0 1.966.082 2.625.24.997.238 1.76.66 2.286 1.268.526.607.788 1.304.788 2.094 0 .676-.207 1.282-.618 1.815-.413.533-1.023.93-1.827 1.19z"/>
            <g transform="translate(285.085 19.322)">
                <mask id="d" fill="#fff">
                    <use xlink:href="#c"/>
                </mask>
                <path fill="#1A1919" d="M12.198.13l.309 4.586h-.31c-.411-1.373-1-2.36-1.765-2.964-.765-.603-1.683-.905-2.755-.905a4.5 4.5 0 0 0-2.435.68c-.725.456-1.295 1.18-1.712 2.175-.416.994-.624 2.23-.624 3.71 0 1.22.196 2.278.589 3.172.393.897.984 1.583 1.77 2.06.79.476 1.69.716 2.7.716.88 0 1.655-.188 2.326-.562.673-.375 1.412-1.12 2.216-2.232l.31.198c-.68 1.2-1.47 2.078-2.376 2.636-.904.558-1.98.836-3.223.836-2.242 0-3.98-.83-5.21-2.487C1.088 10.515.63 9.062.63 7.39c0-1.346.303-2.583.909-3.71.605-1.127 1.437-2 2.5-2.62C5.099.44 6.259.13 7.518.13c.976 0 1.942.24 2.894.716.28.146.478.219.599.219.18 0 .336-.064.469-.19.172-.178.296-.428.368-.746h.35z" mask="url(#d)"/>
            </g>
            <path fill="#1A1919" d="M305.295 32.442c.586.094 1.042.14 1.367.14.82 0 1.559-.272 2.222-.815.661-.544.992-1.296.992-2.258 0-.994-.345-1.732-1.037-2.213-.694-.482-1.57-.721-2.636-.721a5.3 5.3 0 0 0-.908.079v5.788zm0-6.605h.539c1.657 0 2.875.106 3.654.315.778.21 1.412.608 1.9 1.2.49.588.735 1.297.735 2.127 0 1-.373 1.88-1.12 2.636-.745.756-2.028 1.134-3.851 1.134h-5.73v-.368c.838-.027 1.375-.16 1.608-.399.233-.238.348-.802.348-1.69v-8.574c0-.89-.115-1.452-.348-1.692-.233-.238-.77-.371-1.607-.397v-.369h5.829v.369c-.839.026-1.375.159-1.606.397-.234.24-.35.802-.35 1.692v3.62zM328.82 32.88v.368h-3.494c-.38-.603-1.178-1.741-2.395-3.416-1.219-1.673-1.96-2.602-2.227-2.785-.266-.182-.668-.277-1.207-.283v4.028c0 .888.115 1.452.345 1.69.23.24.766.373 1.612.399v.367h-5.83v-.367c.833-.026 1.366-.158 1.601-.393.238-.235.356-.802.356-1.696v-8.575c0-.889-.117-1.452-.35-1.691-.232-.237-.77-.371-1.607-.397v-.37h5.83v.37c-.846.026-1.382.16-1.612.397-.23.24-.345.802-.345 1.691v3.761c.725-.008 1.228-.056 1.507-.145.28-.09.594-.294.943-.612.35-.317.625-.661.83-1.029.202-.367.463-.973.782-1.815.3-.79.544-1.337.735-1.647.188-.308.493-.573.912-.795.42-.223.919-.334 1.498-.334 1.024 0 1.537.36 1.537 1.075a.858.858 0 0 1-.305.656.997.997 0 0 1-.693.278c-.186 0-.5-.106-.938-.318-.387-.193-.656-.288-.809-.288-.214 0-.396.11-.55.333-.153.223-.395.789-.728 1.697-.639 1.697-1.454 2.775-2.445 3.233.605.106 1.444.93 2.515 2.477 1.138 1.637 1.973 2.73 2.504 3.282.534.55 1.209.834 2.027.855M341.862 21.988c0-.808-.132-1.321-.395-1.536-.263-.216-.793-.323-1.592-.323v-.37h5.858v.37c-.838.026-1.373.159-1.606.397-.233.24-.348.802-.348 1.691v8.575c0 .888.115 1.452.348 1.69.233.24.768.372 1.606.399v.367h-5.858v-.367c.859-.027 1.404-.16 1.636-.404.234-.24.351-.803.351-1.685v-7.739l-6.279 8.017c.007.578.045.965.116 1.159.07.195.232.35.488.462.256.114.71.176 1.364.19v.367h-5.84v-.367c.838-.027 1.374-.16 1.606-.399.234-.238.35-.802.35-1.69v-8.575c0-.889-.116-1.452-.35-1.691-.232-.238-.768-.371-1.606-.397v-.37h5.84v.37c-.847.026-1.386.159-1.618.397-.233.24-.35.802-.35 1.691v7.769l6.279-7.998z"/>
            <g transform="translate(348.716 14.145)">
                <mask id="f" fill="#fff">
                    <use xlink:href="#e"/>
                </mask>
                <path fill="#1A1919" d="M10.3 1.149c.207 0 .385.088.535.264.15.176.225.383.225.622 0 .59-.306 1.096-.918 1.52-.613.425-1.584.639-2.915.639-1.337 0-2.31-.214-2.92-.638-.609-.425-.912-.93-.912-1.52 0-.234.072-.44.22-.618.145-.18.329-.27.547-.27.22 0 .408.085.565.254.156.17.377.543.664 1.12.398.822 1.011 1.233 1.836 1.233.82 0 1.43-.411 1.836-1.233.28-.584.496-.96.65-1.125a.766.766 0 0 1 .587-.248zm.061 6.694c0-.809-.132-1.321-.394-1.537-.264-.215-.794-.322-1.592-.322v-.37h5.858v.37c-.838.025-1.373.159-1.607.397-.232.24-.348.802-.348 1.691v8.575c0 .888.116 1.452.348 1.69.234.24.769.372 1.607.399v.367H8.375v-.367c.858-.027 1.403-.16 1.636-.404.234-.24.35-.804.35-1.685V8.908l-6.278 8.016c.006.579.044.965.115 1.16.07.195.233.349.489.462.256.113.71.176 1.363.19v.367H.21v-.367c.838-.027 1.374-.16 1.607-.399.232-.238.35-.802.35-1.69V8.072c0-.889-.118-1.452-.35-1.691-.233-.238-.769-.372-1.607-.397v-.37h5.84v.37c-.846.025-1.385.159-1.62.397-.23.24-.347.802-.347 1.691v7.769l6.278-7.998z" mask="url(#f)"/>
            </g>
        </g>
    </g>
</svg>
